Coordinates
version=1
nRows=4
nColumns=63
inDegrees=yes

Units are S.I. units (second, meters, Newtons, ...)
If the header above contains a line with 'inDegrees', this indicates whether rotational values are in degrees (yes) or radians (no).

endheader
time	pelvis_tilt	pelvis_list	pelvis_rotation	pelvis_tx	pelvis_ty	pelvis_tz	hip_flexion_r	hip_adduction_r	hip_rotation_r	knee_angle_r	knee_angle_r_beta	ankle_angle_r	subtalar_angle_r	mtp_angle_r	hip_flexion_l	hip_adduction_l	hip_rotation_l	knee_angle_l	knee_angle_l_beta	ankle_angle_l	subtalar_angle_l	mtp_angle_l	L5_S1_Flex_Ext	L5_S1_Lat_Bending	L5_S1_axial_rotation	L4_L5_Flex_Ext	L4_L5_Lat_Bending	L4_L5_axial_rotation	L3_L4_Flex_Ext	L3_L4_Lat_Bending	L3_L4_axial_rotation	L2_L3_Flex_Ext	L2_L3_Lat_Bending	L2_L3_axial_rotation	L1_L2_Flex_Ext	L1_L2_Lat_Bending	L1_L2_axial_rotation	L1_T12_Flex_Ext	L1_T12_Lat_Bending	L1_T12_axial_rotation	Abs_r3	Abs_r2	Abs_r1	Abs_t1	Abs_t2	neck_flexion	neck_bending	neck_rotation	arm_flex_r	arm_add_r	arm_rot_r	elbow_flex_r	pro_sup_r	wrist_flex_r	wrist_dev_r	arm_flex_l	arm_add_l	arm_rot_l	elbow_flex_l	pro_sup_l	wrist_flex_l	wrist_dev_l
      8.17073171	     -1.20639728	    -12.59800023	     90.37766321	      0.27235312	      0.37613018	      0.93793463	     16.73255027	     -0.94934539	    -16.02687940	      8.64375982	      0.15086207	     21.69351165	     10.39325568	      0.00000000	     16.10730564	      1.28378805	    -10.47261417	      5.96642230	      0.10413371	     23.45264429	     15.37484439	      0.00000000	      0.06524435	     -0.45018360	      0.17352467	      0.12116528	     -0.59874418	      0.18436996	      0.10718994	     -1.09457640	      0.18436996	      0.07456777	     -1.09457640	      0.15183409	      0.06058590	     -0.91801439	      0.14098879	      0.03728062	     -0.69733439	      0.13014350	      0.46603385	     -5.09256688	      0.96509216	      0.00000000	      0.00000000	     27.92920695	    -10.64611280	     16.49558281	     -2.20757396	    -12.25205159	     35.27304790	     29.97380887	     84.59095973	     -7.66918372	    -16.52182193	     -0.39409052	    -16.51546253	     43.49880987	     26.91917497	     84.39174292	    -13.56118113	     -9.80211279
      8.19512195	     -1.34906620	    -12.78460230	     89.96999914	      0.27305060	      0.37573850	      0.93910771	     17.02624706	     -0.85314957	    -13.76624949	      8.54038164	      0.14905778	     21.20924141	      8.38870284	      0.00000000	     16.15080348	      1.39604594	    -10.62909940	      5.41741600	      0.09455175	     23.29815768	     14.95960834	      0.00000000	      0.05792117	     -0.46293593	      0.28666051	      0.10756541	     -0.61570479	      0.30457680	      0.09515870	     -1.12558242	      0.30457680	      0.06619811	     -1.12558242	      0.25082795	      0.05378560	     -0.94401895	      0.23291167	      0.03309616	     -0.71708776	      0.21499539	      0.41372516	     -5.23682384	      1.59431978	      0.00000000	      0.00000000	     27.86817876	     -9.39930333	     15.78522143	     -2.19332873	    -12.03247763	     33.82326622	     29.99484534	     84.94115586	     -6.26005253	    -15.13080489	     -0.14778367	    -16.47440641	     43.26402980	     27.01581905	     84.83005909	    -13.29002278	    -10.10626627
      8.21951220	     -1.32175172	    -12.98012095	     89.92553737	      0.27320311	      0.37534858	      0.94071139	     17.31881937	     -0.81188071	    -13.26602962	      8.47903439	      0.14798707	     21.11881606	      8.62574650	      0.00000000	     16.35898423	      1.38293281	    -10.63732697	      5.08870358	      0.08881463	     23.17486775	     14.93507426	      0.00000000	      0.03855572	     -0.45723738	      0.32071655	      0.07160182	     -0.60812571	      0.34076133	      0.06334319	     -1.11172696	      0.34076133	      0.04406533	     -1.11172696	      0.28062698	      0.03580284	     -0.93239846	      0.26058220	      0.02203074	     -0.70826070	      0.24053741	      0.27539963	     -5.17236069	      1.78372924	      0.00000000	      0.00000000	     27.81664436	     -8.19252339	     15.02854694	     -1.65427317	    -11.80499370	     34.02301724	     29.19844835	     84.89192171	     -6.23710244	    -14.34413655	      0.16877625	    -16.30385642	     43.32457645	     26.90042404	     85.03653583	    -13.42195969	    -10.09009361
      8.24390244	     -1.75084550	    -12.96633009	     89.18096717	      0.27462592	      0.37501917	      0.94215620	     17.45209312	     -0.88134318	    -10.59087755	      8.29068918	      0.14469982	     20.84472307	      6.55913853	      0.00000000	     16.07096106	      1.72943688	    -10.80730517	      4.33083710	      0.07558737	     22.85939842	     14.13176046	      0.00000000	     -0.01279986	     -0.51449693	      0.41737245	     -0.02377062	     -0.68428091	      0.44345823	     -0.02102889	     -1.25094783	      0.44345823	     -0.01462896	     -1.25094783	      0.36520090	     -0.01188595	     -1.04916213	      0.33911512	     -0.00731384	     -0.79695574	      0.31302934	     -0.09142811	     -5.82009212	      2.32130037	      0.00000000	      0.00000000	     27.62727976	     -6.47350729	     14.15511136	     -0.34527050	    -11.68522291	     37.86342263	     27.96165515	     82.53848455	     -6.71462225	    -13.36031280	      0.20914175	    -16.56043211	     43.25151636	     27.24064089	     86.12475808	    -14.98611437	    -10.26106381
